<?xml version="1.0"?>
<svg width="122.88" height="122.76" xmlns="http://www.w3.org/2000/svg" xmlns:svg="http://www.w3.org/2000/svg" enable-background="new 0 0 122.88 122.76" version="1.1" xml:space="preserve">

 <g class="layer">
  <title>Layer 1</title>
  <g id="svg_1">
   <path d="m114.89,89.82c0,-2.21 1.79,-4 4,-4c2.21,0 4,1.79 4,4l0,28.75c0,2.21 -1.79,4 -4,4l-29.22,0c-2.21,0 -4,-1.79 -4,-4c0,-2.21 1.79,-4 4,-4l19.18,0l-34.36,-32.48c-1.6,-1.51 -1.68,-4.03 -0.17,-5.64c1.51,-1.6 4.03,-1.68 5.64,-0.17l34.93,33.02l0,-19.48l0,0zm-25.07,-81.83c-2.21,0 -4,-1.79 -4,-4c0,-2.21 1.79,-4 4,-4l28.75,0c2.21,0 4,1.79 4,4l0,29.21c0,2.21 -1.79,4 -4,4c-2.21,0 -4,-1.79 -4,-4l0,-19.17l-32.48,34.36c-1.51,1.6 -4.03,1.68 -5.64,0.17c-1.6,-1.51 -1.68,-4.03 -0.17,-5.64l33.02,-34.93l-19.48,0l0,0zm-81.83,24.77c0,2.21 -1.79,4 -4,4c-2.21,0 -4,-1.79 -4,-4l0,-28.75c0,-2.21 1.79,-4 4,-4l29.21,0c2.21,0 4,1.79 4,4c0,2.21 -1.79,4 -4,4l-19.17,0l34.36,32.48c1.6,1.51 1.68,4.03 0.17,5.64c-1.51,1.6 -4.03,1.68 -5.64,0.17l-34.93,-33.02l0,19.48l0,0zm24.95,82.01c2.21,0 4,1.79 4,4c0,2.21 -1.79,4 -4,4l-28.75,0c-2.21,0 -4,-1.79 -4,-4l0,-29.22c0,-2.21 1.79,-4 4,-4c2.21,0 4,1.79 4,4l0,19.18l32.48,-34.36c1.51,-1.6 4.03,-1.68 5.64,-0.17c1.6,1.51 1.68,4.03 0.17,5.64l-33.02,34.93l19.48,0l0,0z" fill="#ffffff" id="svg_2"/>
  </g>
 </g>
</svg>