<?xml version="1.0"?>
<svg width="122.88" height="122.92" xmlns="http://www.w3.org/2000/svg" xmlns:svg="http://www.w3.org/2000/svg" enable-background="new 0 0 122.88 122.92" version="1.1" xml:space="preserve">

 <g class="layer">
  <title>Layer 1</title>
  <g id="svg_1">
   <path d="m106.4,43.36c1.68,0 3.04,1.36 3.04,3.04c0,1.68 -1.36,3.04 -3.04,3.04l-29.94,0c-1.68,0 -3.04,-1.36 -3.04,-3.04l0,-30.41c0,-1.68 1.36,-3.04 3.04,-3.04c1.68,0 3.04,1.36 3.04,3.04l0,3.08l0,19.69l9.52,-10.06l26.24,-27.75c1.15,-1.21 3.07,-1.27 4.28,-0.12c1.21,1.15 1.27,3.07 0.12,4.28l-26.37,27.89l-9.8,10.36l20.05,0l2.86,0l0,0zm-63.03,-26.89c0,-1.68 1.36,-3.04 3.04,-3.04s3.04,1.36 3.04,3.04l0,29.93c0,1.68 -1.36,3.04 -3.04,3.04l-30.41,0c-1.68,0 -3.04,-1.36 -3.04,-3.04c0,-1.68 1.36,-3.04 3.04,-3.04l3.11,0l19.66,0l-10.01,-9.46l-27.8,-26.28c-1.22,-1.15 -1.28,-3.07 -0.13,-4.29c1.14,-1.23 3.07,-1.28 4.29,-0.13l27.99,26.46l10.26,9.7l0,-19.75l0,-3.14l0,0zm-26.89,63.08c-1.68,0 -3.04,-1.36 -3.04,-3.04c0,-1.68 1.36,-3.04 3.04,-3.04l29.94,0c1.68,0 3.04,1.36 3.04,3.04l0,30.41c0,1.68 -1.36,3.04 -3.04,3.04s-3.04,-1.36 -3.04,-3.04l0,-3.11l0,-19.66l-9.46,10.01l-26.29,27.81c-1.15,1.22 -3.07,1.28 -4.29,0.13c-1.22,-1.15 -1.28,-3.07 -0.13,-4.29l26.46,-27.99l9.7,-10.26l-19.75,0l-3.14,0l0,-0.01zm63.03,26.89c0,1.68 -1.36,3.04 -3.04,3.04c-1.68,0 -3.04,-1.36 -3.04,-3.04l0,-29.93c0,-1.68 1.36,-3.04 3.04,-3.04l30.41,0c1.68,0 3.04,1.36 3.04,3.04c0,1.68 -1.36,3.04 -3.04,3.04l-3.08,0l-19.7,0l10.07,9.52l27.75,26.23c1.22,1.15 1.28,3.07 0.13,4.29c-1.15,1.22 -3.07,1.28 -4.29,0.13l-27.9,-26.38l-10.35,-9.78l0,20.02l0,2.86l0,0z" fill="#ffffff" id="svg_2"/>
  </g>
 </g>
</svg>