<?xml version="1.0"?>
<svg width="122.881" height="9.737" xmlns="http://www.w3.org/2000/svg" xmlns:svg="http://www.w3.org/2000/svg" enable-background="new 0 0 122.881 9.737" version="1.1" xml:space="preserve">

 <g class="layer">
  <title>Layer 1</title>
  <g id="svg_1">
   <path d="m117.92,0.01c0.03,-0.01 0.06,-0.01 0.09,-0.01c0.66,0 1.29,0.13 1.86,0.37c0.02,0.01 0.03,0.01 0.04,0.02c0.58,0.25 1.11,0.6 1.54,1.04c0.88,0.88 1.43,2.09 1.43,3.44c0,0.65 -0.13,1.28 -0.37,1.86c-0.25,0.6 -0.61,1.13 -1.06,1.58c-0.44,0.45 -0.98,0.81 -1.58,1.06l0,0c-0.57,0.23 -1.2,0.37 -1.86,0.37c-0.03,0 -0.06,-0.01 -0.09,-0.01c-37.65,0 -75.31,0 -112.96,0c-0.03,0 -0.06,0.01 -0.09,0.01c-0.66,0 -1.28,-0.14 -1.86,-0.37c-0.6,-0.25 -1.14,-0.61 -1.58,-1.06c-0.45,-0.44 -0.81,-0.98 -1.06,-1.58l0,0c-0.24,-0.58 -0.37,-1.2 -0.37,-1.86c0,-0.66 0.13,-1.28 0.37,-1.86c0.25,-0.6 0.61,-1.14 1.06,-1.58c0.88,-0.88 2.09,-1.43 3.44,-1.43c0.03,0 0.06,0 0.09,0.01c37.65,0 75.31,0 112.96,0l0,0z" fill="#ffffff" id="svg_2"/>
  </g>
 </g>
</svg>