<?xml version="1.0"?>
<svg width="139" height="126" xmlns="http://www.w3.org/2000/svg" xmlns:svg="http://www.w3.org/2000/svg" xmlns:xlink="http://www.w3.org/1999/xlink">
 <!-- Created with SVG-edit - https://github.com/SVG-Edit/svgedit-->
 <defs>
  <symbol id="svg_1" version="1.1" viewBox="-5.0 -10.0 110.0 135.0" xmlns="http://www.w3.org/2000/svg">
   <path d="m76.13,46.21l-22.22,0l0,-4.92l12.85,0l0,-26.82l-33.52,0l0,26.82l12.85,0l0,4.92l-22.22,0l0,12.5l-12.87,0l0,26.82l33.53,0l0,-26.82l-12.85,0l0,-4.69l36.64,0l0,4.69l-12.85,0l0,26.82l33.53,0l0,-26.82l-12.85,0l0,-12.5l-0.02,0zm-35.08,-12.73l0,-11.19l17.91,0l0,11.19l-17.91,0zm-4.33,44.24l-17.91,0l0,-11.2l17.91,0l0,11.2zm44.47,0l-17.91,0l0,-11.2l17.91,0l0,11.2z"/>
  </symbol>
 </defs>
 <g class="layer">
  <title>Layer 1</title>
  <use fill="#ff0000" id="svg_2" transform="matrix(1.85899, 0, 0, 1.86821, -0.310162, 0.0774706)" x="-31.65" xlink:href="#svg_1" y="-22.34"/>
 </g>
</svg>