<?xml version="1.0"?>
<svg width="113.055" height="122.88" xmlns="http://www.w3.org/2000/svg" xmlns:svg="http://www.w3.org/2000/svg" enable-background="new 0 0 113.055 122.88" version="1.1" xml:space="preserve">

 <g class="layer">
  <title>Layer 1</title>
  <g id="svg_1">
   <path d="m53.11,2.46c0,-1.36 1.53,-2.46 3.42,-2.46s3.41,1.1 3.41,2.46l0,44.37c0,1.36 -1.53,2.46 -3.41,2.46s-3.42,-1.1 -3.42,-2.46l0,-44.37l0,0zm20.5,17.2c-1.76,-0.65 -2.67,-2.6 -2.02,-4.37c0.65,-1.77 2.6,-2.68 4.37,-2.03c10.96,4.02 20.34,11.34 26.92,20.77c6.41,9.17 10.17,20.32 10.17,32.32c0,15.61 -6.32,29.74 -16.55,39.97c-10.23,10.23 -24.37,16.56 -39.97,16.56s-29.74,-6.33 -39.97,-16.56c-10.23,-10.23 -16.56,-24.36 -16.56,-39.97c0,-12 3.76,-23.15 10.17,-32.32c6.58,-9.43 15.96,-16.75 26.92,-20.77c1.77,-0.65 3.73,0.26 4.38,2.03c0.64,1.76 -0.26,3.72 -2.03,4.37c-9.66,3.54 -17.91,9.98 -23.7,18.26c-5.62,8.04 -8.91,17.85 -8.91,28.43c0,13.73 5.56,26.15 14.55,35.15c9,8.99 21.42,14.56 35.15,14.56s26.15,-5.57 35.14,-14.56c9,-9 14.56,-21.42 14.56,-35.15c0,-10.58 -3.3,-20.39 -8.92,-28.43c-5.78,-8.28 -14.04,-14.72 -23.7,-18.26l0,0z" fill="#ff0000" id="svg_2"/>
  </g>
 </g>
</svg>