<svg xmlns="http://www.w3.org/2000/svg" xmlns:xlink="http://www.w3.org/1999/xlink" version="1.1" x="0px" y="0px" viewBox="0 0 100 125" style="enable-background:new 0 0 100 100;" xml:space="preserve"><path d="M36.406826,9.286171v81.4282379c0,2.4242096-1.2927628,4.6643829-3.392067,5.876503s-4.6870689,1.2121201-6.7864628,0  s-3.3920689-3.4522705-3.3920689-5.876503V25.6677876l-8.7744722,8.7733135  c-1.7187767,1.6880951-4.2043152,2.3378868-6.5296736,1.7074013c-2.3253851-0.6304855-4.1417904-2.4469452-4.7722774-4.7722778  c-0.630487-2.3253841,0.0193119-4.810955,1.7074032-6.5296726L24.8242664,4.4894919  c1.272316-1.2723165,2.9980106-1.9879832,4.797287-1.9879832S33.147686,3.2160418,34.420002,4.488358  c1.2723198,1.2734499,1.9868507,2.9988871,1.9868507,4.7984519L36.406826,9.286171z M95.4888306,65.5588989  c-1.272316-1.2734528-2.9980087-1.9879837-4.797287-1.9879837s-3.5261307,0.7145309-4.7984467,1.9879837l-8.7733154,8.7733154  V9.2855902c0-2.4242086-1.2927628-4.6643848-3.392067-5.876502s-4.6870651-1.2121172-6.7864609,0  s-3.392067,3.4522674-3.392067,5.876502v81.4282303c0,1.7994232,0.7145309,3.524971,1.9868469,4.7984543  c1.272316,1.272316,2.9988861,1.9868469,4.7984467,1.9868469s3.524971-0.7156677,4.797287-1.9879837l20.3570633-20.3570633  c1.2734528-1.272316,1.9879761-2.9980087,1.9879761-4.797287c0-1.7992706-0.7145309-3.5261307-1.9879837-4.7984467  L95.4888306,65.5588989z"/></svg>